<svg xmlns="http://www.w3.org/2000/svg" width="512" height="512" viewBox="0 0 512 512" fill="none" role="img" aria-labelledby="title desc">
  <title id="title">Homewise icon</title>
  <desc id="desc">A warm home outline with a family, sprout, and open recipe book.</desc>

  <defs>
    <linearGradient id="oliveStroke" x1="64" y1="68" x2="443" y2="458" gradientUnits="userSpaceOnUse">
      <stop offset="0" stop-color="#91A27B"/>
      <stop offset="1" stop-color="#667856"/>
    </linearGradient>
    <linearGradient id="leftPage" x1="70" y1="295" x2="255" y2="462" gradientUnits="userSpaceOnUse">
      <stop offset="0" stop-color="#FFF9EC"/>
      <stop offset="1" stop-color="#F4E8CB"/>
    </linearGradient>
    <linearGradient id="rightPage" x1="256" y1="295" x2="442" y2="462" gradientUnits="userSpaceOnUse">
      <stop offset="0" stop-color="#FFF9EC"/>
      <stop offset="1" stop-color="#F2E3BE"/>
    </linearGradient>
    <linearGradient id="warmPerson" x1="309" y1="143" x2="389" y2="276" gradientUnits="userSpaceOnUse">
      <stop offset="0" stop-color="#D88952"/>
      <stop offset="1" stop-color="#B8643C"/>
    </linearGradient>
    <filter id="softShadow" x="35" y="53" width="442" height="429" filterUnits="userSpaceOnUse" color-interpolation-filters="sRGB">
      <feDropShadow dx="0" dy="10" stdDeviation="11" flood-color="#253018" flood-opacity="0.12"/>
    </filter>
  </defs>

  <g filter="url(#softShadow)">
    <path d="M82 212L256 72L430 212" stroke="url(#oliveStroke)" stroke-width="22" stroke-linecap="round" stroke-linejoin="round"/>
    <path d="M111 198V420C111 435.464 123.536 448 139 448H373C388.464 448 401 435.464 401 420V198" stroke="url(#oliveStroke)" stroke-width="22" stroke-linecap="round"/>
    <path d="M356 155V97H397V188" stroke="url(#oliveStroke)" stroke-width="22" stroke-linecap="round" stroke-linejoin="round"/>

    <path d="M80 349C80 299 80 254 80 209" stroke="#758866" stroke-width="13" stroke-linecap="round"/>
    <path d="M80 284C56 281 39 263 34 236C61 238 79 255 80 284Z" fill="#758866"/>
    <path d="M80 307C103 303 119 286 123 260C98 262 82 279 80 307Z" fill="#758866"/>
    <path d="M80 345C55 342 38 324 33 297C61 299 79 316 80 345Z" fill="#758866"/>
    <path d="M81 366C105 362 121 344 125 317C99 320 83 338 81 366Z" fill="#758866"/>

    <circle cx="180" cy="171" r="34" fill="#758866"/>
    <path d="M125 280C130.5 236.5 150.5 216 180 216C210 216 230 237 235 280" fill="#758866"/>

    <circle cx="335" cy="171" r="34" fill="url(#warmPerson)"/>
    <path d="M280 280C285.5 236.5 305.5 216 335 216C365 216 385 237 390 280" fill="url(#warmPerson)"/>

    <circle cx="256" cy="220" r="30" fill="#E4CFA8"/>
    <path d="M210 308C214 269 231 250 256 250C281 250 298 269 302 308" fill="#E4CFA8"/>

    <path d="M74 318C116 299 190 300 256 357V455C188 406 115 410 74 429V318Z" fill="url(#leftPage)" stroke="#758866" stroke-width="13" stroke-linejoin="round"/>
    <path d="M438 318C396 299 322 300 256 357V455C324 406 397 410 438 429V318Z" fill="url(#rightPage)" stroke="#758866" stroke-width="13" stroke-linejoin="round"/>
    <path d="M256 357V455" stroke="#758866" stroke-width="13" stroke-linecap="round"/>

    <path d="M319 363C347 355 382 355 411 364" stroke="#91A27B" stroke-width="11" stroke-linecap="round"/>
    <path d="M319 390C346 383 380 383 407 391" stroke="#91A27B" stroke-width="11" stroke-linecap="round"/>
    <path d="M319 417C342 411 368 411 389 418" stroke="#91A27B" stroke-width="11" stroke-linecap="round"/>

    <path d="M149 377H199C199 407 182 425 158 425H142C129 425 118 414 118 401V390C118 383 124 377 131 377H149Z" fill="#C87445"/>
    <path d="M199 389H209C219 389 227 397 227 407C227 417 219 425 209 425H190" stroke="#C87445" stroke-width="11" stroke-linecap="round"/>
    <path d="M159 399C154 392 142 393 142 403C142 412 159 421 159 421C159 421 176 412 176 403C176 393 164 392 159 399Z" fill="#FFF9EC"/>

    <path d="M176 356C176 336 176 321 176 307" stroke="#758866" stroke-width="8" stroke-linecap="round"/>
    <path d="M176 331C160 329 150 318 147 302C165 303 175 315 176 331Z" fill="#758866"/>
    <path d="M177 333C194 331 205 319 208 302C190 304 179 316 177 333Z" fill="#758866"/>

    <path d="M374 408C369 401 357 402 357 412C357 421 374 431 374 431C374 431 391 421 391 412C391 402 379 401 374 408Z" fill="#C87445"/>
  </g>
</svg>
